<svg width="44" height="40" xmlns="http://www.w3.org/2000/svg"><g fill="#9EABB2"><path d="M11.07 0C8.353 0 6.14 2.192 6.14 4.876l-.179 25.278 2.69.02.179-25.289c0-1.21 1.005-2.196 2.24-2.196h27.027V0H11.071z"/><path d="M38.097 0a5.115 5.115 0 0 0-5.11 5.11v28.37a3.723 3.723 0 0 1-3.72 3.72 3.725 3.725 0 0 1-3.72-3.72v-3.27c0-.743-.601-1.345-1.344-1.345H1.345A1.343 1.343 0 0 0 0 30.21v3.272a6.417 6.417 0 0 0 6.41 6.409V37.2a3.724 3.724 0 0 1-3.72-3.72v-1.927h20.168v1.928a6.417 6.417 0 0 0 6.41 6.409 6.417 6.417 0 0 0 6.409-6.41V12.46h6.185c.743 0 1.345-.602 1.345-1.345V5.11A5.115 5.115 0 0 0 38.097 0zm2.42 9.77h-4.84V5.11a2.423 2.423 0 0 1 2.42-2.42 2.423 2.423 0 0 1 2.42 2.42v4.66z"/><path d="M6.14 37.201h22.813v2.689H6.14zM19.99 7.485h-6.947a1.345 1.345 0 1 0 0 2.69h6.947a1.345 1.345 0 1 0 0-2.69zm8.067 5.378H13.043a1.345 1.345 0 1 0 0 2.69h15.014a1.345 1.345 0 1 0 0-2.69zm0 5.379H13.043a1.345 1.345 0 1 0 0 2.69h15.014a1.344 1.344 0 1 0 0-2.69zm0 5.378H13.043a1.345 1.345 0 1 0 0 2.69h15.014a1.345 1.345 0 1 0 0-2.69z"/></g></svg>