<svg width="1324" height="1323" xmlns="http://www.w3.org/2000/svg"><defs><linearGradient x1=".695%" y1="0%" x2="99.305%" y2="100%" id="a"><stop stop-color="#FF8F71" offset="0%"/><stop stop-color="#FF3E55" offset="100%"/></linearGradient></defs><path d="M821.895 497.74v328h-328v-228c0-55.23 44.772-100 100-100h228Zm-545.24-1.279c90.576 0 164 73.425 164 164s-73.424 164-164 164c-90.574 0-164-73.425-164-164s73.426-164 164-164ZM822.229 111.49v328h-228c-55.229 0-100-44.772-100-100v-228h328Zm-382.167-.904v228c0 55.228-44.771 100-100 100h-228v-328h328Z" transform="rotate(22 67.652 1066.199)" fill="url(#a)" fill-rule="evenodd"/></svg>